<svg width="24" height="24" viewBox="0 0 24 24" fill="none" xmlns="http://www.w3.org/2000/svg">
<path d="M18.2176 7.27795C19.0129 7.27795 19.6576 6.63324 19.6576 5.83795C19.6576 5.04266 19.0129 4.39795 18.2176 4.39795C17.4223 4.39795 16.7776 5.04266 16.7776 5.83795C16.7776 6.63324 17.4223 7.27795 18.2176 7.27795Z" fill="black" fill-opacity="0.87"/>
<path fill-rule="evenodd" clip-rule="evenodd" d="M6 12C6 15.309 8.691 18 12 18C15.309 18 18 15.309 18 12C18 8.691 15.309 6 12 6C8.691 6 6 8.691 6 12ZM9 12C9 10.3455 10.3455 9 12 9C13.6545 9 15 10.3455 15 12C15 13.6545 13.6545 15 12 15C10.3455 15 9 13.6545 9 12Z" fill="black" fill-opacity="0.87"/>
<path fill-rule="evenodd" clip-rule="evenodd" d="M6 24H18C21.084 24 24 21.084 24 18V6C24 2.916 21.084 0 18 0H6C2.916 0 0 2.916 0 6V18C0 21.084 2.916 24 6 24ZM3 6C3 4.5975 4.5975 3 6 3H18C19.4025 3 21 4.5975 21 6V18C21 19.4025 19.4025 21 18 21H6C4.5705 21 3 19.4295 3 18V6Z" fill="black" fill-opacity="0.87"/>
</svg>
