<svg width="24" height="20" viewBox="0 0 24 20" fill="none" xmlns="http://www.w3.org/2000/svg">
<path d="M24 2.2669C23.1 2.72028 22.2 2.87141 21.15 3.02253C22.2 2.41803 22.95 1.51127 23.25 0.302253C22.35 0.90676 21.3 1.20901 20.1 1.51127C19.2 0.604506 17.85 0 16.5 0C13.95 0 11.7 2.2669 11.7 4.98718C11.7 5.44056 11.7 5.74281 11.85 6.04507C7.8 5.89394 4.05 3.92929 1.65 0.90676C1.2 1.66239 1.05 2.41803 1.05 3.47591C1.05 5.13831 1.95 6.64957 3.3 7.55633C2.55 7.55633 1.8 7.25408 1.05 6.95183C1.05 9.36985 2.7 11.3345 4.95 11.7879C4.5 11.939 4.05 11.939 3.6 11.939C3.3 11.939 3 11.939 2.7 11.7879C3.3 13.7525 5.1 15.2638 7.35 15.2638C5.7 16.6239 3.6 17.3796 1.2 17.3796C0.75 17.3796 0.45 17.3796 0 17.3796C2.25 18.7397 4.8 19.6465 7.5 19.6465C16.5 19.6465 21.45 12.0901 21.45 5.59169C21.45 5.44056 21.45 5.13831 21.45 4.98718C22.5 4.23155 23.4 3.32479 24 2.2669Z" fill="black" fill-opacity="0.87"/>
</svg>
